<svg xmlns="http://www.w3.org/2000/svg" version="1.1" viewBox="-5.0 -10.0 110.0 135.0">
 <path d="m91.926 5.8047c-0.82422-0.44922-1.7461-0.73828-2.7422-0.76953-0.92188-0.019531-1.9297-0.03125-3-0.03125-15.16 0-43.23 2.6367-60.887 20.293-19.199 19.199-20.559 51.074-20.262 63.887 0.03125 0.99609 0.32031 1.918 0.76953 2.7422l10.426-10.426c0.62109-0.62109 1.6406-0.62109 2.2695 0 0.62109 0.63281 0.62109 1.6484 0 2.2695l-10.426 10.426c0.82422 0.44922 1.7461 0.73828 2.7422 0.76953 0.92188 0.019531 1.9297 0.03125 3 0.03125 15.16 0 43.23-2.6367 60.887-20.293 19.199-19.199 20.559-51.074 20.262-63.887-0.03125-0.99609-0.32031-1.918-0.76953-2.7422l-9.9648 9.9648c-0.3125 0.3125-0.71875 0.47266-1.1367 0.47266-0.40625 0-0.82422-0.16016-1.1367-0.47266-0.62109-0.63281-0.62109-1.6484 0-2.2695zm-23.004 27.547-5.957 5.9688 4.4375 4.4375c0.63281 0.63281 0.63281 1.6484 0 2.2695-0.3125 0.32031-0.73047 0.47266-1.1367 0.47266s-0.82422-0.14844-1.1367-0.47266l-4.4453-4.4375-8.4141 8.4102 4.4453 4.4453c0.62109 0.62109 0.62109 1.6406 0 2.2695-0.32031 0.3125-0.73047 0.47266-1.1367 0.47266-0.41797 0-0.82422-0.16016-1.1367-0.47266l-4.4414-4.4453-8.4102 8.4102 4.4375 4.4453c0.63281 0.63281 0.63281 1.6484 0 2.2695-0.3125 0.3125-0.71875 0.47266-1.1367 0.47266-0.40625 0-0.82422-0.16016-1.1367-0.47266l-4.4375-4.4375-5.9688 5.957c-0.3125 0.3125-0.71875 0.47266-1.1367 0.47266-0.40625 0-0.82422-0.16016-1.1367-0.47266-0.62109-0.63281-0.62109-1.6484 0-2.2695l5.957-5.9688-4.4297-4.4297c-0.63281-0.63281-0.63281-1.6484 0-2.2695 0.62109-0.63281 1.6406-0.63281 2.2695 0l4.4453 4.4375 8.4141-8.4141-4.4453-4.4453c-0.62109-0.62109-0.62109-1.6406 0-2.2695 0.63281-0.62109 1.6484-0.62109 2.2695 0l4.4453 4.4453 8.4102-8.4102-4.4375-4.4453c-0.63281-0.63281-0.63281-1.6484 0-2.2695 0.62109-0.63281 1.6406-0.63281 2.2695 0l4.4375 4.4375 5.9688-5.957c0.62109-0.62109 1.6406-0.62109 2.2695 0 0.625 0.625 0.625 1.6445 0.003906 2.2656z"/>
<text x="0.0" y="117.5" font-size="5.0" font-weight="bold" font-family="Arbeit Regular, Helvetica, Arial-Unicode, Arial, Sans-serif" fill="#000000">Created by Maxim Kulikov</text><text x="0.0" y="122.5" font-size="5.0" font-weight="bold" font-family="Arbeit Regular, Helvetica, Arial-Unicode, Arial, Sans-serif" fill="#000000">from Noun Project</text></svg>